<?xml version="1.0" standalone="no"?>
<!DOCTYPE svg PUBLIC "-//W3C//DTD SVG 1.1//EN" "http://www.w3.org/Graphics/SVG/1.1/DTD/svg11.dtd" >
<!--
2013-9-30: Created.
-->
<svg>
<metadata>
Created by iconfont
</metadata>
<defs>

<font id="ld" horiz-adv-x="1024" >
  <font-face
    font-family="ld"
    font-weight="500"
    font-stretch="normal"
    units-per-em="1024"
    ascent="896"
    descent="-128"
  />
    <missing-glyph />
    
    <glyph glyph-name="close" unicode="&#58890;" d="M512 810.666667C276.053333 810.666667 85.333333 619.9466669999999 85.333333 384s190.72-426.666667 426.666667-426.666667 426.666667 190.72 426.666667 426.666667S747.946667 810.666667 512 810.666667z m213.333333-579.84L665.173333 170.66666699999996 512 323.84000000000003 358.826667 170.66666699999996 298.666667 230.82666700000004 451.84 384 298.666667 537.173333 358.826667 597.333333 512 444.16 665.173333 597.333333 725.333333 537.173333 572.16 384 725.333333 230.82666700000004z"  horiz-adv-x="1024" />

    
    <glyph glyph-name="coupon-small" unicode="&#58891;" d="M85.333333 341.33333300000004c0-25.6 8.533333-46.933333 25.6-59.733333l298.666667-298.666667c12.8-17.066667 34.133333-25.6 59.733333-25.6s46.933333 8.533333 59.733334 25.6l384 384c17.066667 17.066667 25.6 38.4 25.6 59.733334V725.333333c0 46.933333-38.4 85.333333-85.333334 85.333334h-298.666666c-25.6 0-46.933333-8.533333-59.733334-25.6l-384-384c-17.066667-12.8-25.6-38.4-25.6-59.733334z m640 320c0 34.133333 29.866667 64 64 64s64-29.866667 64-64S823.466667 597.333333 789.333333 597.333333 725.333333 627.2 725.333333 661.333333z"  horiz-adv-x="1024" />

    
    <glyph glyph-name="svg-" unicode="&#58900;" d="M0 832h384v-384H0zM512 832h512v-128H512zM512 576h512v-128H512zM0 320h384v-384H0zM512 320h512v-128H512zM512 64h512v-128H512z"  horiz-adv-x="1024" />

    
    <glyph glyph-name="svg-1" unicode="&#58901;" d="M640 832h384v-384h-384zM0 832h512v-128H0zM0 576h512v-128H0zM640 320h384v-384h-384zM0 320h512v-128H0zM0 64h512v-128H0z"  horiz-adv-x="1024" />

    
    <glyph glyph-name="svg-2" unicode="&#58902;" d="M576 832h384v-384H576zM576 320h384v-384H576zM64 832h384v-384H64zM64 320h384v-384H64z"  horiz-adv-x="1024" />

    
    <glyph glyph-name="svg-3" unicode="&#58903;" d="M0 832h128v-128H0zM0 576h128v-128H0zM0 320h128v-128H0zM0 64h128v-128H0zM192 832h256v-128H192zM192 576h256v-128H192zM192 320h256v-128H192zM192 64h256v-128H192zM576 832h128v-128H576zM576 576h128v-128H576zM576 320h128v-128H576zM576 64h128v-128H576zM768 832h256v-128h-256zM768 576h256v-128h-256zM768 320h256v-128h-256zM768 64h256v-128h-256z"  horiz-adv-x="1024" />

    
    <glyph glyph-name="svg-4" unicode="&#58904;" d="M0 832h1024v-128H0zM0 576h1024v-128H0zM0 320h1024v-128H0zM0 64h1024v-128H0z"  horiz-adv-x="1024" />

    
    <glyph glyph-name="authorization_px" unicode="&#58905;" d="M512 853.333333L128 682.666667v-256c0-236.8 163.84-458.24 384-512 220.16 53.76 384 275.2 384 512V682.666667l-384 170.666666z m-85.333333-682.666666l-170.666667 170.666666 60.16 60.16L426.666667 291.413333l281.173333 281.173334L768 512l-341.333333-341.333333z"  horiz-adv-x="1024" />

    
    <glyph glyph-name="cancel_authorization" unicode="&#58906;" d="M512 850.488889l-386.844444-170.666667v-256c0-238.933333 164.977778-460.8 381.155555-512 221.866667 51.2 386.844444 273.066667 386.844445 512V679.822222L512 850.488889z m199.111111-608.711111l-56.888889-56.888889L512 327.111111l-142.222222-142.222222-56.888889 56.888889L455.111111 384 312.888889 526.222222l56.888889 56.888889L512 440.888889l142.222222 142.222222 56.888889-56.888889L568.888889 384l142.222222-142.222222z"  horiz-adv-x="1024" />

    
    <glyph glyph-name="compass_px" unicode="&#58907;" d="M682.666667 640l97.706666-97.706667-208.213333-208.213333-170.666667 170.666667L85.333333 188.16 145.493333 128l256 256 170.666667-170.666667 268.8 268.373334L938.666667 384V640z"  horiz-adv-x="1024" />

    
    <glyph glyph-name="content_px" unicode="&#58908;" d="M896 768H128c-46.933333 0-85.333333-38.4-85.333333-85.333333v-512c0-46.933333 38.4-85.333333 85.333333-85.333334h213.333333v-85.333333h341.333334v85.333333h213.333333c46.933333 0 84.906667 38.4 84.906667 85.333334L981.333333 682.666667c0 46.933333-38.4 85.333333-85.333333 85.333333z m0-597.333333H128V682.666667h768v-512z m-85.333333 384H341.333333v-85.333334h469.333334V554.666667z m0-170.666667H341.333333v-85.333333h469.333334v85.333333zM298.666667 554.666667H213.333333v-85.333334h85.333334V554.666667z m0-170.666667H213.333333v-85.333333h85.333334v85.333333z"  horiz-adv-x="1024" />

    
    <glyph glyph-name="done_px" unicode="&#58909;" d="M384 204.8L204.8 384l-59.733333-59.733333L384 85.333333 896 597.333333l-59.733333 59.733334L384 204.8z"  horiz-adv-x="1024" />

    
    <glyph glyph-name="edit_px" unicode="&#58910;" d="M128 160V0h160L759.893333 471.893333l-160 160L128 160zM883.626667 595.626667a42.496 42.496 0 0 1 0 60.16l-99.84 99.84a42.496 42.496 0 0 1-60.16 0l-78.08-78.08 160-160 78.08 78.08z"  horiz-adv-x="1024" />

    
    <glyph glyph-name="settings" unicode="&#58911;" d="M816.64 344.064c1.536 12.8 2.56 26.112 2.56 39.936s-1.024 27.136-3.072 39.936l86.528 67.584c7.68 6.144 9.728 17.408 5.12 26.112l-81.92 141.824c-5.12 9.216-15.872 12.288-25.088 9.216l-101.888-40.96c-21.504 16.384-44.032 29.696-69.12 39.936L614.4 776.192a20.48 20.48 0 0 1-20.48 17.408H430.08c-10.24 0-18.432-7.168-19.968-17.408l-15.36-108.544c-25.088-10.24-48.128-24.064-69.12-39.936l-101.888 40.96c-9.216 3.584-19.968 0-25.088-9.216l-81.92-141.824c-5.12-9.216-3.072-19.968 5.12-26.112l86.528-67.584c-2.048-12.8-3.584-26.624-3.584-39.936s1.024-27.136 3.072-39.936L121.344 276.48c-7.68-6.144-9.728-17.408-5.12-26.112l81.92-141.824c5.12-9.216 15.872-12.288 25.088-9.216l101.888 40.96c21.504-16.384 44.032-29.696 69.12-39.936l15.36-108.544c2.048-10.24 10.24-17.408 20.48-17.408h163.84c10.24 0 18.944 7.168 19.968 17.408l15.36 108.544c25.088 10.24 48.128 24.064 69.12 39.936l101.888-40.96c9.216-3.584 19.968 0 25.088 9.216l81.92 141.824c5.12 9.216 3.072 19.968-5.12 26.112l-85.504 67.584zM512 230.4c-84.48 0-153.6 69.12-153.6 153.6s69.12 153.6 153.6 153.6 153.6-69.12 153.6-153.6-69.12-153.6-153.6-153.6z"  horiz-adv-x="1024" />

    
    <glyph glyph-name="up" unicode="&#58912;" d="M316.16 238.506667L512 433.92l195.84-195.413333L768 298.666667l-256 256-256-256z"  horiz-adv-x="1024" />

    
    <glyph glyph-name="down" unicode="&#58913;" d="M316.16 529.493333L512 334.08l195.84 195.413333L768 469.333333l-256-256-256 256 60.16 60.16z"  horiz-adv-x="1024" />

    
    <glyph glyph-name="neilian" unicode="&#58934;" d="M166.4 384c0 72.96 59.306667 132.266667 132.266667 132.266667h170.666666V597.333333H298.666667c-117.76 0-213.333333-95.573333-213.333334-213.333333s95.573333-213.333333 213.333334-213.333333h170.666666v81.066666H298.666667c-72.96 0-132.266667 59.306667-132.266667 132.266667zM341.333333 341.333333h341.333334v85.333334H341.333333v-85.333334z m384 256h-170.666666v-81.066666h170.666666c72.96 0 132.266667-59.306667 132.266667-132.266667s-59.306667-132.266667-132.266667-132.266667h-170.666666V170.666667h170.666666c117.76 0 213.333333 95.573333 213.333334 213.333333s-95.573333 213.333333-213.333334 213.333333z"  horiz-adv-x="1024" />

    
    <glyph glyph-name="yuyan" unicode="&#58935;" d="M512 810.666667C276.48 810.666667 85.333333 619.52 85.333333 384s191.146667-426.666667 426.666667-426.666667 426.666667 191.146667 426.666667 426.666667S747.52 810.666667 512 810.666667z m-42.666667-765.013334c-168.533333 20.906667-298.666667 164.266667-298.666666 338.346667 0 26.453333 3.413333 51.626667 8.96 76.373333L384 256v-42.666667c0-46.933333 38.4-85.333333 85.333333-85.333333v-82.346667z m294.4 108.373334c-11.093333 34.56-42.666667 59.306667-81.066666 59.306666h-42.666667v128c0 23.466667-19.2 42.666667-42.666667 42.666667H341.333333v85.333333h85.333334c23.466667 0 42.666667 19.2 42.666666 42.666667V597.333333h85.333334c46.933333 0 85.333333 38.4 85.333333 85.333334v17.493333c125.013333-50.773333 213.333333-173.226667 213.333333-316.16 0-88.746667-34.133333-169.386667-89.6-229.973333z"  horiz-adv-x="1024" />

    
    <glyph glyph-name="SSL" unicode="&#58936;" d="M768 554.666667h-42.666667V640c0 117.76-95.573333 213.333333-213.333333 213.333333S298.666667 757.76 298.666667 640v-85.333333H256c-46.933333 0-85.333333-38.4-85.333333-85.333334v-426.666666c0-46.933333 38.4-85.333333 85.333333-85.333334h512c46.933333 0 85.333333 38.4 85.333333 85.333334V469.333333c0 46.933333-38.4 85.333333-85.333333 85.333334z m-256-384c-46.933333 0-85.333333 38.4-85.333333 85.333333s38.4 85.333333 85.333333 85.333333 85.333333-38.4 85.333333-85.333333-38.4-85.333333-85.333333-85.333333z m132.266667 384H379.733333V640c0 72.96 59.306667 132.266667 132.266667 132.266667 72.96 0 132.266667-59.306667 132.266667-132.266667v-85.333333z"  horiz-adv-x="1024" />

    
    <glyph glyph-name="TKD" unicode="&#58937;" d="M725.333333 486.4c-17.066667 0-29.866667 0-34.133333-4.266667v-204.8h29.866667c68.266667 0 106.666667 38.4 106.666666 110.933334 0 64-34.133333 98.133333-102.4 98.133333zM896 768H128C85.333333 768 42.666667 725.333333 42.666667 682.666667v-597.333334c0-46.933333 38.4-85.333333 85.333333-85.333333h768c42.666667 0 85.333333 42.666667 85.333333 85.333333V682.666667c0 42.666667-42.666667 85.333333-85.333333 85.333333zM358.4 482.133333h-85.333333v-243.2H221.866667V482.133333H140.8v42.666667h217.6v-42.666667z m192-243.2L469.333333 371.2l-25.6-29.866667v-102.4H392.533333V524.8h51.2v-132.266667c8.533333 12.8 12.8 21.333333 21.333334 29.866667l76.8 102.4h64l-98.133334-123.733333 106.666667-166.4h-64z m290.133333 34.133334c-29.866667-25.6-72.533333-38.4-128-38.4-29.866667 0-51.2 0-72.533333 4.266666V520.533333c21.333333 4.266667 51.2 4.266667 85.333333 4.266667 55.466667 0 89.6-12.8 115.2-34.133333 29.866667-21.333333 46.933333-55.466667 46.933334-106.666667-4.266667-46.933333-21.333333-85.333333-46.933334-110.933333z"  horiz-adv-x="1024" />

    
    <glyph glyph-name="CDN" unicode="&#58938;" d="M482.133333 375.466667c-12.8 0-21.333333 0-29.866666-4.266667v-166.4h25.6c55.466667 0 89.6 29.866667 89.6 89.6-4.266667 51.2-34.133333 81.066667-85.333334 81.066667zM823.466667 469.333333c-29.866667 149.333333-157.866667 256-311.466667 256-123.733333 0-230.4-68.266667-285.866667-170.666666-128-17.066667-226.133333-123.733333-226.133333-256 0-140.8 115.2-256 256-256h554.666667c119.466667 0 213.333333 93.866667 213.333333 213.333333 0 110.933333-85.333333 204.8-200.533333 213.333333zM328.533333 204.8c17.066667 0 34.133333 4.266667 46.933334 8.533333l8.533333-34.133333c-12.8-4.266667-34.133333-8.533333-64-8.533333-72.533333 0-119.466667 46.933333-119.466667 115.2 0 76.8 55.466667 123.733333 123.733334 123.733333 29.866667 0 46.933333-4.266667 55.466666-8.533333l-8.533333-34.133334c-12.8 4.266667-25.6 8.533333-46.933333 8.533334-46.933333 0-81.066667-29.866667-81.066667-85.333334 4.266667-51.2 34.133333-85.333333 85.333333-85.333333z m243.2 0c-21.333333-21.333333-59.733333-34.133333-106.666666-34.133333-25.6 0-42.666667 0-55.466667 4.266666v230.4c17.066667 4.266667 42.666667 4.266667 68.266667 4.266667 42.666667 0 72.533333-8.533333 93.866666-25.6 21.333333-17.066667 38.4-46.933333 38.4-85.333333 0-42.666667-17.066667-76.8-38.4-93.866667z m251.733334-29.866667h-42.666667l-59.733333 102.4c-12.8 25.6-29.866667 55.466667-42.666667 81.066667 0-29.866667 4.266667-59.733333 4.266667-98.133333v-85.333334h-42.666667v234.666667h46.933333l59.733334-98.133333c17.066667-25.6 29.866667-51.2 38.4-76.8-4.266667 29.866667-4.266667 59.733333-4.266667 98.133333v81.066667h38.4v-238.933334z"  horiz-adv-x="1024" />

    


  </font>
</defs>
</svg>
